<svg width="80" height="80" viewBox="0 0 80 80" fill="none" xmlns="http://www.w3.org/2000/svg">
<path d="M58.7568 38.0453L41.4995 37.2358L36.158 47.3543L68.2071 53.8301L58.7568 38.0453Z" fill="white" stroke="white" stroke-width="0.5"/>
<path d="M57.935 39.2595L42.3213 38.45L37.8016 46.362L65.7418 52.2111L57.935 39.2595Z" fill="#FFB02B"/>
<path d="M25.8027 64.3835L17.8784 55.2728L22.0553 45.1692L15.2467 43.7484L5.07169 34.4201L26.117 35.4992L40.9474 36.2596L34.7257 47.8133L25.8027 64.3835Z" fill="#FFB02B"/>
<path fill-rule="evenodd" clip-rule="evenodd" d="M25.628 34.6635L39.6175 5.72505L41.7365 7.19482L27.4262 34.7557L40.467 35.4244L48.5896 20.3406L50.0415 21.0992L42.2775 35.5172L59.2123 36.3855L59.1269 38.0023L41.4279 37.0948L35.9626 47.244L70.0844 54.3646L70.0844 57.1267L35.1615 48.7317L25.9636 65.8125L16.9284 55.4246L20.9237 45.7605L14.8536 44.4938L2.85759 33.4961L25.628 34.6635ZM24.8574 36.2452L7.28595 35.3442L15.6399 43.003L21.5535 44.237L24.8574 36.2452ZM22.5573 46.1014L18.8285 55.121L25.6421 62.9546L33.489 48.3827L22.5573 46.1014ZM34.2901 46.895L23.1871 44.578L26.5506 36.4421L26.6063 36.3349L39.6175 37.002L34.2901 46.895Z" fill="#FFB02B"/>
<path d="M69.9141 55.1565L40.9075 6.66354L52.7015 7.03338L75.068 44.4255L69.9141 55.1565Z" fill="#FFB02B"/>
<path fill-rule="evenodd" clip-rule="evenodd" d="M39.4418 5.80765L53.1799 6.23845L75.9971 44.384L69.9936 56.8839L39.4418 5.80765ZM42.3733 7.51934L69.8347 53.429L74.139 44.467L52.2232 7.82822L42.3733 7.51934Z" fill="#FFB02B"/>
<path d="M27.5293 34.4027L41.0885 8.49948L48.4845 20.6416L40.2668 35.2122L27.5293 34.4027Z" fill="white" stroke="white" stroke-width="0.5"/>
<path d="M39.8559 34.4027L28.762 33.998L40.6777 10.9279L46.841 21.4511L39.8559 34.4027Z" fill="#FFB02B"/>
</svg>
